<svg width="25" height="24" viewBox="0 0 25 24" fill="none" xmlns="http://www.w3.org/2000/svg">
  <path d="M22.2 11.5667C22.2 16.8499 17.7222 21.1334 12.2 21.1334C11.5507 21.1343 10.9032 21.0742 10.2654 20.9545C9.80628 20.8682 9.57673 20.8251 9.41648 20.8496C9.25622 20.8741 9.02913 20.9948 8.57494 21.2364C7.29009 21.9197 5.7919 22.161 4.35106 21.893C4.89869 21.2194 5.2727 20.4112 5.43773 19.5448C5.53773 19.0148 5.28995 18.5 4.91884 18.1231C3.23328 16.4115 2.19995 14.1051 2.19995 11.5667C2.19995 6.28357 6.67773 2 12.2 2C17.7222 2 22.2 6.28357 22.2 11.5667Z"
        stroke="#6B7280" stroke-width="1.25" stroke-linejoin="round"/>
  <path d="M12.1955 12H12.2045M16.191 12H16.2M8.19995 12H8.20892"
        stroke="#6B7280" stroke-width="1.66667" stroke-linecap="round" stroke-linejoin="round"/>
</svg>
