<svg width="25" height="24" viewBox="0 0 25 24" xmlns="http://www.w3.org/2000/svg">
  <path d="M2.95173 13.2135C2.59871 10.9162 2.4222 9.76763 2.85651 8.74938C3.29081 7.73112 4.25437 7.03443 6.18148 5.64106L7.62133 4.6C10.0186 2.86667 11.2173 2 12.6004 2C13.9834 2 15.1821 2.86667 17.5794 4.6L19.0192 5.64106C20.9464 7.03443 21.9099 7.73112 22.3442 8.74938C22.7785 9.76763 22.602 10.9162 22.249 13.2135L21.948 15.1724C21.4475 18.4289 21.1973 20.0572 20.0294 21.0286C18.8615 22 17.154 22 13.7392 22H11.4616C8.04668 22 6.33925 22 5.17134 21.0286C4.00343 20.0572 3.75321 18.4289 3.25277 15.1724L2.95173 13.2135Z"
        fill="black" stroke="black" stroke-width="1.25" stroke-linejoin="round"/>
  <path d="M12.6003 18V15" stroke="#F3F4F6" stroke-width="1.25" stroke-linecap="round"/>
</svg>
