<svg width="25" height="24" viewBox="0 0 25 24" fill="none" xmlns="http://www.w3.org/2000/svg">
<path d="M2.79993 6C2.79993 4.11438 2.79993 3.17157 3.38572 2.58579C3.9715 2 4.91431 2 6.79993 2C8.68555 2 9.62836 2 10.2141 2.58579C10.7999 3.17157 10.7999 4.11438 10.7999 6V8C10.7999 9.88562 10.7999 10.8284 10.2141 11.4142C9.62836 12 8.68555 12 6.79993 12C4.91431 12 3.9715 12 3.38572 11.4142C2.79993 10.8284 2.79993 9.88562 2.79993 8V6Z" stroke="#6B7280" stroke-width="1.25"/>
<path d="M2.79993 19C2.79993 18.0681 2.79993 17.6022 2.95217 17.2346C3.15516 16.7446 3.54451 16.3552 4.03456 16.1522C4.40211 16 4.86805 16 5.79993 16H7.79993C8.73181 16 9.19775 16 9.5653 16.1522C10.0553 16.3552 10.4447 16.7446 10.6477 17.2346C10.7999 17.6022 10.7999 18.0681 10.7999 19C10.7999 19.9319 10.7999 20.3978 10.6477 20.7654C10.4447 21.2554 10.0553 21.6448 9.5653 21.8478C9.19775 22 8.73181 22 7.79993 22H5.79993C4.86805 22 4.40211 22 4.03456 21.8478C3.54451 21.6448 3.15516 21.2554 2.95217 20.7654C2.79993 20.3978 2.79993 19.9319 2.79993 19Z" stroke="#6B7280" stroke-width="1.25"/>
<path d="M14.7999 16C14.7999 14.1144 14.7999 13.1716 15.3857 12.5858C15.9715 12 16.9143 12 18.7999 12C20.6855 12 21.6283 12 22.2141 12.5858C22.7999 13.1716 22.7999 14.1144 22.7999 16V18C22.7999 19.8856 22.7999 20.8284 22.2141 21.4142C21.6283 22 20.6855 22 18.7999 22C16.9143 22 15.9715 22 15.3857 21.4142C14.7999 20.8284 14.7999 19.8856 14.7999 18V16Z" stroke="#6B7280" stroke-width="1.25"/>
<path d="M14.7999 5C14.7999 4.06812 14.7999 3.60218 14.9521 3.23463C15.1551 2.74458 15.5445 2.35523 16.0345 2.15224C16.4021 2 16.868 2 17.7999 2H19.7999C20.7318 2 21.1977 2 21.5653 2.15224C22.0553 2.35523 22.4447 2.74458 22.6477 3.23463C22.7999 3.60218 22.7999 4.06812 22.7999 5C22.7999 5.93188 22.7999 6.39782 22.6477 6.76537C22.4447 7.25542 22.0553 7.64477 21.5653 7.84776C21.1977 8 20.7318 8 19.7999 8H17.7999C16.868 8 16.4021 8 16.0345 7.84776C15.5445 7.64477 15.1551 7.25542 14.9521 6.76537C14.7999 6.39782 14.7999 5.93188 14.7999 5Z" stroke="#6B7280" stroke-width="1.25"/>
</svg>
