<svg width="20" height="20" viewBox="0 0 20 20" fill="none" xmlns="http://www.w3.org/2000/svg">
<path d="M2.10794 11.9953C1.93073 13.1229 2.72301 13.9055 3.69305 14.2955C7.41202 15.7908 12.5873 15.7908 16.3063 14.2955C17.2763 13.9055 18.0686 13.1229 17.8914 11.9953C17.7825 11.3024 17.244 10.7254 16.845 10.162C16.3224 9.41491 16.2705 8.60008 16.2704 7.73317C16.2704 4.38291 13.4629 1.66699 9.99968 1.66699C6.53645 1.66699 3.72895 4.38291 3.72895 7.73317C3.72887 8.60008 3.67694 9.41491 3.15435 10.162C2.75538 10.7254 2.21685 11.3024 2.10794 11.9953Z" stroke="currentColor" stroke-width="1.25" stroke-linecap="round" stroke-linejoin="round"/>
<path d="M7.5 17.5C8.16344 18.0183 9.03958 18.3333 10 18.3333C10.9604 18.3333 11.8366 18.0183 12.5 17.5" stroke="currentColor" stroke-width="1.25" stroke-linecap="round" stroke-linejoin="round"/>
</svg>
