<svg width="25" height="24" viewBox="0 0 25 24" fill="none" xmlns="http://www.w3.org/2000/svg">
  <path d="M15.9 12C15.9 13.933 14.333 15.5 12.4 15.5C10.467 15.5 8.90002 13.933 8.90002 12C8.90002 10.067 10.467 8.5 12.4 8.5C14.333 8.5 15.9 10.067 15.9 12Z"
        stroke="#6B7280" stroke-width="1.25"/>
  <path d="M21.1906 9.15201C21.9969 10.5418 22.4 11.2366 22.4 12C22.4 12.7634 21.9969 13.4582 21.1906 14.848L19.2669 18.1638C18.4638 19.548 18.0623 20.2402 17.4019 20.6201C16.7416 21 15.9402 21 14.3373 21H10.4627C8.85984 21 8.05842 21 7.39809 20.6201C6.73776 20.2402 6.33621 19.548 5.53313 18.1638L3.60944 14.848C2.80316 13.4582 2.40002 12.7634 2.40002 12C2.40002 11.2366 2.80316 10.5418 3.60944 9.152L5.53313 5.83621C6.33621 4.45196 6.73776 3.75984 7.39809 3.37992C8.05842 3 8.85984 3 10.4627 3H14.3373C15.9402 3 16.7416 3 17.4019 3.37992C18.0623 3.75984 18.4638 4.45197 19.2669 5.83622L21.1906 9.15201Z"
        stroke="#6B7280" stroke-width="1.25"/>
</svg>
